<svg xmlns="http://www.w3.org/2000/svg" width="1024" height="1024" viewBox="0 0 1024 1024">
<g>
<path d="M 565.98 805.64 C566.02,882.02 565.86,890.84 564.46,891.38 C562.50,892.13 558.00,887.82 558.00,885.20 C558.00,884.16 557.02,882.45 555.83,881.40 C554.63,880.36 554.02,880.12 554.47,880.88 C555.08,881.92 554.89,882.04 553.69,881.37 C551.44,880.10 540.53,867.46 536.35,861.25 C534.40,858.36 532.35,856.00 531.80,856.00 C531.24,856.00 531.03,855.37 531.33,854.59 C531.90,853.10 529.12,850.00 527.21,850.00 C526.18,850.00 523.35,845.92 523.88,845.21 C524.44,844.47 519.13,839.19 518.45,839.81 C518.03,840.19 517.97,839.99 518.33,839.36 C519.10,838.01 516.40,835.54 514.11,835.52 C513.13,835.51 512.49,834.64 512.47,833.29 C512.44,830.85 507.69,825.35 504.83,824.45 C502.27,823.63 491.78,811.02 492.37,809.47 C492.64,808.76 491.94,807.36 490.82,806.34 C489.69,805.33 488.38,803.48 487.91,802.24 C487.43,800.99 485.79,799.43 484.27,798.77 C480.52,797.13 472.05,788.04 472.69,786.35 C472.98,785.61 472.58,785.00 471.79,785.00 C469.88,785.00 465.00,779.79 465.00,777.75 C465.00,776.85 463.80,775.52 462.32,774.80 C460.85,774.09 459.44,772.87 459.19,772.11 C458.89,771.17 459.18,770.97 460.12,771.51 C460.88,771.95 459.97,770.68 458.09,768.69 C456.22,766.70 454.23,765.36 453.67,765.70 C453.10,766.06 452.90,765.71 453.20,764.91 C453.84,763.26 447.65,756.72 446.47,757.79 C446.03,758.18 446.02,757.91 446.44,757.19 C447.40,755.53 444.29,751.95 442.48,752.65 C441.75,752.93 440.67,752.25 440.08,751.14 C438.74,748.65 438.68,746.96 440.00,749.00 C440.53,749.83 440.98,749.99 440.98,749.37 C441.01,747.77 438.47,745.87 437.50,746.76 C437.05,747.17 437.01,746.93 437.40,746.24 C437.84,745.48 437.41,744.73 436.31,744.34 C433.21,743.24 431.11,740.89 431.74,739.23 C432.18,738.09 431.91,737.82 430.77,738.26 C429.33,738.81 427.56,736.04 427.89,733.75 C427.95,733.34 427.33,733.00 426.51,733.00 C425.70,733.00 424.36,731.39 423.53,729.43 C422.61,727.21 421.61,726.12 420.90,726.56 C420.09,727.06 419.87,726.21 420.17,723.69 C420.51,720.75 420.18,719.90 418.29,718.89 L 416.00 717.66 L 416.00 529.91 C416.00,426.65 416.27,341.45 416.61,340.58 C417.15,339.16 424.82,339.00 493.11,339.00 L 569.00 339.00 L 569.00 529.43 C569.00,699.42 568.84,719.89 567.47,720.18 C566.12,720.46 565.95,730.06 565.98,805.64 ZM 201.60 415.79 C163.90,415.60 143.84,415.85 143.53,416.50 C143.27,417.05 143.16,416.60 143.28,415.50 C143.41,414.35 142.97,413.61 142.25,413.75 C141.26,413.95 141.05,401.02 141.24,351.25 L 141.48 288.50 L 142.52 407.50 L 142.76 346.75 C142.99,287.36 143.04,286.00 144.94,286.00 C146.01,286.00 147.16,285.55 147.50,285.00 C147.85,284.43 147.01,284.00 145.56,284.00 C143.44,284.00 143.00,283.53 142.98,281.25 C142.97,279.11 142.76,278.83 142.00,280.00 C141.37,280.97 141.11,255.56 141.26,207.50 L 141.48 133.50 L 142.52 278.50 L 143.00 131.92 L 208.75 131.99 C244.91,132.03 322.41,132.05 380.96,132.04 C439.51,132.03 487.77,132.37 488.20,132.80 C489.40,134.00 489.70,281.92 488.50,282.42 C487.95,282.65 488.06,282.88 488.75,282.92 C489.44,282.96 490.00,283.45 490.00,284.00 C490.00,284.66 453.13,285.00 381.39,285.00 C285.26,285.00 272.85,284.83 273.36,283.50 C274.07,281.65 272.11,281.60 269.73,283.40 C267.77,284.90 268.36,288.00 270.61,288.00 C271.78,288.00 272.00,297.81 272.00,350.95 L 272.00 413.91 L 268.51 414.56 C266.59,414.92 264.28,414.94 263.38,414.59 C262.48,414.25 261.17,414.44 260.47,415.02 C259.60,415.74 240.98,415.99 201.60,415.79 ZM 709.83 281.66 L 709.50 284.50 L 601.00 284.75 L 492.50 285.01 L 492.77 209.75 C492.91,168.36 493.24,133.94 493.48,133.25 C493.84,132.26 515.86,132.00 599.03,132.00 C668.83,132.00 703.91,131.66 703.50,131.00 C702.47,129.33 708.18,129.87 709.42,131.55 C710.60,133.17 714.45,132.54 713.44,130.90 C713.11,130.37 747.65,130.00 796.77,130.00 C863.18,130.00 880.68,130.26 880.75,131.25 C880.80,131.94 881.07,133.51 881.36,134.75 C881.74,136.37 881.41,137.04 880.19,137.15 L 877.29 137.41 C876.62,137.47 875.50,138.10 874.80,138.80 C873.76,139.84 873.76,140.23 874.81,140.88 C876.54,141.95 874.10,144.02 870.68,144.38 C869.32,144.53 867.49,145.37 866.61,146.25 C865.14,147.72 865.15,147.89 866.75,148.31 C868.12,148.67 868.01,148.82 866.25,149.01 C865.01,149.14 863.55,149.31 863.01,149.38 C861.74,149.53 856.98,154.64 857.55,155.22 C858.01,155.68 848.47,164.24 841.27,169.84 C838.95,171.65 837.15,173.46 837.27,173.87 C837.53,174.69 830.65,181.00 829.51,181.00 C829.11,181.00 827.45,182.13 825.81,183.51 C824.17,184.89 822.42,185.76 821.92,185.45 C821.41,185.14 821.00,185.36 821.00,185.94 C821.00,186.52 820.42,187.00 819.71,187.00 C818.99,187.00 816.71,188.80 814.62,191.00 C812.54,193.20 810.48,195.00 810.04,195.00 C809.61,195.00 808.97,196.38 808.64,198.07 C808.13,200.59 807.66,201.03 806.01,200.50 C804.81,200.12 804.00,200.32 804.00,200.99 C804.00,201.61 803.52,201.82 802.93,201.46 C801.98,200.87 801.03,202.70 800.82,205.50 C800.78,206.05 798.68,207.50 796.15,208.72 C793.62,209.94 791.31,211.53 791.02,212.25 C789.99,214.85 781.10,222.18 779.89,221.43 C779.20,221.00 778.95,221.11 779.31,221.69 C780.02,222.85 774.76,228.25 773.36,227.80 C772.11,227.40 760.89,237.02 761.49,237.98 C761.96,238.75 759.70,241.04 757.00,242.52 C756.06,243.04 756.25,242.44 757.50,240.94 C759.48,238.56 759.48,238.55 757.51,240.02 C753.44,243.06 751.80,244.87 752.34,245.75 C752.65,246.24 751.02,248.19 748.71,250.08 C743.60,254.25 740.00,258.00 740.00,259.15 C740.00,259.62 738.71,260.00 737.12,260.00 C734.38,260.00 731.42,262.09 732.55,263.22 C732.85,263.52 731.28,265.19 729.07,266.95 C726.86,268.70 725.15,270.59 725.27,271.16 C725.40,271.72 724.60,272.71 723.50,273.34 C722.41,273.98 720.02,275.74 718.21,277.26 C715.83,279.25 714.25,279.85 712.53,279.42 C710.49,278.91 710.10,279.22 709.83,281.66 ZM 271.50 489.98 L 271.50 560.46 L 268.70 560.67 C266.81,560.82 265.73,560.34 265.38,559.19 C264.36,555.88 263.21,554.50 261.70,554.77 C260.86,554.93 259.16,553.58 257.92,551.77 C256.69,549.97 254.58,547.30 253.23,545.83 C251.88,544.36 251.08,542.68 251.45,542.08 C251.82,541.48 251.08,540.60 249.77,540.10 C246.91,539.01 244.62,536.42 245.40,535.16 C245.72,534.65 245.31,533.67 244.49,532.99 C243.67,532.31 243.00,532.10 243.00,532.53 C243.00,532.96 242.08,532.48 240.96,531.47 C239.85,530.46 239.14,529.07 239.41,528.39 C239.99,526.86 237.63,524.73 236.50,525.76 C236.05,526.17 236.00,525.94 236.40,525.25 C236.85,524.46 236.26,523.67 234.81,523.11 C232.13,522.08 228.33,518.00 224.33,511.85 C222.77,509.46 221.16,507.35 220.75,507.17 C220.34,506.98 220.00,506.27 220.00,505.57 C220.00,504.07 216.57,500.76 215.81,501.53 C215.52,501.82 214.00,500.35 212.44,498.28 C210.88,496.20 207.78,492.56 205.55,490.18 C203.32,487.80 201.61,485.30 201.75,484.62 C202.01,483.31 196.58,477.55 195.64,478.15 C195.11,478.49 186.00,468.30 186.00,467.36 C186.00,467.10 186.52,467.20 187.15,467.60 C187.88,468.05 188.04,467.87 187.57,467.11 C187.16,466.46 185.07,464.81 182.92,463.45 C180.50,461.92 179.00,460.21 179.00,458.99 C179.00,457.89 178.66,457.05 178.25,457.12 C175.96,457.48 175.00,456.75 175.00,454.62 C175.00,452.32 172.82,449.51 171.82,450.51 C171.01,451.32 167.97,447.46 167.50,445.02 C167.07,442.77 164.39,440.09 162.50,440.03 C161.95,440.01 160.60,438.65 159.50,437.00 C158.40,435.35 157.09,434.00 156.60,434.00 C155.49,434.00 149.18,426.76 146.63,422.57 C145.61,420.88 145.08,419.80 145.47,420.17 C145.85,420.53 147.05,419.95 148.13,418.87 C150.04,416.96 151.59,416.92 207.89,417.20 C253.16,417.44 266.03,417.78 267.24,418.79 C268.09,419.49 269.40,419.94 270.14,419.79 C271.27,419.55 271.50,431.20 271.50,489.98 ZM 772.42 229.36 C772.07,230.26 771.38,231.00 770.89,231.00 C769.61,231.00 769.79,230.42 771.52,228.98 C772.80,227.92 772.94,227.99 772.42,229.36 ZM 459.00 770.65 C459.00,771.46 458.20,770.86 456.40,768.75 L 454.50 766.50 L 456.75 768.40 C457.99,769.45 459.00,770.47 459.00,770.65 Z" fill="rgb(45,212,191)"/>
<path d="M 201.60 415.79 C240.98,415.99 259.60,415.74 260.47,415.02 C261.17,414.44 262.48,414.25 263.38,414.59 C264.28,414.94 266.59,414.92 268.51,414.56 L 271.32 414.04 C271.23,415.60 271.12,416.43 271.00,416.50 C270.33,416.92 270.33,417.74 271.00,418.99 C272.19,421.23 272.35,520.69 271.50,551.86 L 271.50 489.98 C271.50,431.20 271.27,419.55 270.14,419.79 C269.40,419.94 268.09,419.49 267.24,418.79 C266.03,417.78 253.16,417.44 207.89,417.20 C151.59,416.92 150.04,416.96 148.13,418.87 C147.05,419.95 145.85,420.53 145.47,420.17 C145.08,419.80 145.61,420.88 146.63,422.57 C149.18,426.76 155.49,434.00 156.60,434.00 C157.09,434.00 158.40,435.35 159.50,437.00 C160.60,438.65 161.95,440.01 162.50,440.03 C164.39,440.09 167.07,442.77 167.50,445.02 C167.97,447.46 171.01,451.32 171.82,450.51 C172.82,449.51 175.00,452.32 175.00,454.62 C175.00,456.75 175.96,457.48 178.25,457.12 C178.66,457.05 179.00,457.89 179.00,458.99 C179.00,460.21 180.50,461.92 182.92,463.45 C185.07,464.81 187.16,466.46 187.57,467.11 C188.04,467.87 187.88,468.05 187.15,467.60 C186.52,467.20 186.00,467.10 186.00,467.36 C186.00,468.30 195.11,478.49 195.64,478.15 C196.58,477.55 202.01,483.31 201.75,484.62 C201.61,485.30 203.32,487.80 205.55,490.18 C207.78,492.56 210.88,496.20 212.44,498.28 C214.00,500.35 215.52,501.82 215.81,501.53 C216.57,500.76 220.00,504.07 220.00,505.57 C220.00,506.27 220.34,506.98 220.75,507.17 C221.16,507.35 222.77,509.46 224.33,511.85 C228.33,518.00 232.13,522.08 234.81,523.11 C236.26,523.67 236.85,524.46 236.40,525.25 C236.00,525.94 236.05,526.17 236.50,525.76 C237.63,524.73 239.99,526.86 239.41,528.39 C239.14,529.07 239.85,530.46 240.96,531.47 C242.08,532.48 243.00,532.96 243.00,532.53 C243.00,532.10 243.67,532.31 244.49,532.99 C245.31,533.67 245.72,534.65 245.40,535.16 C244.62,536.42 246.91,539.01 249.77,540.10 C251.08,540.60 251.82,541.48 251.45,542.08 C251.08,542.68 251.88,544.36 253.23,545.83 C254.58,547.30 256.69,549.97 257.92,551.77 C259.16,553.58 260.86,554.93 261.70,554.77 C263.21,554.50 264.36,555.88 265.38,559.19 C265.73,560.34 266.81,560.82 268.70,560.67 L 271.09 560.49 C271.05,560.79 271.01,560.99 270.96,561.07 C269.50,563.81 267.85,563.48 264.32,559.75 C262.63,557.96 237.36,528.83 208.16,495.00 C178.96,461.17 152.55,430.70 149.46,427.29 C145.35,422.74 144.01,420.56 144.45,419.15 C144.92,417.68 144.46,417.08 142.53,416.60 L 140.00 415.96 L 140.00 130.00 L 511.75 130.25 C591.56,130.30 654.23,130.35 703.45,130.40 C703.34,130.55 703.35,130.75 703.50,131.00 C703.91,131.66 668.83,132.00 599.03,132.00 C515.86,132.00 493.84,132.26 493.48,133.25 C493.24,133.94 492.91,168.36 492.77,209.75 L 492.50 284.75 L 490.75 284.75 L 457.51 284.79 C479.06,284.62 490.00,284.36 490.00,284.00 C490.00,283.45 489.44,282.96 488.75,282.92 C488.06,282.88 487.95,282.65 488.50,282.42 C489.70,281.92 489.40,134.00 488.20,132.80 C487.77,132.37 439.51,132.03 380.96,132.04 C322.41,132.05 244.91,132.03 208.75,131.99 L 143.00 131.92 L 142.52 278.50 L 141.48 133.50 L 141.26 207.50 C141.11,255.56 141.37,280.97 142.00,280.00 C142.76,278.83 142.97,279.11 142.98,281.25 C143.00,283.53 143.44,284.00 145.56,284.00 C147.01,284.00 147.85,284.43 147.50,285.00 C147.16,285.55 146.01,286.00 144.94,286.00 C143.04,286.00 142.99,287.36 142.76,346.75 L 142.52 407.50 L 141.48 288.50 L 141.24 351.25 C141.05,401.02 141.26,413.95 142.25,413.75 C142.97,413.61 143.41,414.35 143.28,415.50 C143.16,416.60 143.27,417.05 143.53,416.50 C143.84,415.85 163.90,415.60 201.60,415.79 ZM 565.98 805.64 C565.95,730.06 566.12,720.46 567.47,720.18 C567.88,720.09 568.17,718.25 568.39,711.32 C568.25,717.97 568.08,721.00 567.88,721.00 C567.09,721.00 567.07,721.38 567.79,722.25 C569.35,724.13 569.47,891.72 567.92,893.60 C567.28,894.37 566.27,895.00 565.69,895.00 C564.51,895.00 556.32,886.50 552.18,881.00 C550.74,879.08 544.56,871.88 538.45,865.00 C532.35,858.12 521.18,845.30 513.64,836.50 C506.09,827.70 497.31,817.58 494.13,814.00 C488.70,807.91 436.98,748.25 423.23,732.21 C417.92,726.02 417.13,724.62 418.02,722.96 C418.96,721.21 418.74,721.00 416.04,721.00 L 413.00 721.00 L 413.00 339.00 L 491.00 339.00 C424.67,339.00 417.15,339.17 416.61,340.58 C416.27,341.45 416.00,426.65 416.00,529.91 L 416.00 717.66 L 418.29 718.89 C420.18,719.90 420.51,720.75 420.17,723.69 C419.87,726.21 420.09,727.06 420.90,726.56 C421.61,726.12 422.61,727.21 423.53,729.43 C424.36,731.39 425.70,733.00 426.51,733.00 C427.33,733.00 427.95,733.34 427.89,733.75 C427.56,736.04 429.33,738.81 430.77,738.26 C431.91,737.82 432.18,738.09 431.74,739.23 C431.11,740.89 433.21,743.24 436.31,744.34 C437.41,744.73 437.84,745.48 437.40,746.24 C437.01,746.93 437.05,747.17 437.50,746.76 C438.47,745.87 441.01,747.77 440.98,749.37 C440.98,749.99 440.53,749.83 440.00,749.00 C438.68,746.96 438.74,748.65 440.08,751.14 C440.67,752.25 441.75,752.93 442.48,752.65 C444.29,751.95 447.40,755.53 446.44,757.19 C446.02,757.91 446.03,758.18 446.47,757.79 C447.65,756.72 453.84,763.26 453.20,764.91 C452.90,765.71 453.10,766.06 453.67,765.70 C454.23,765.36 456.22,766.70 458.09,768.69 C459.97,770.68 460.88,771.95 460.12,771.51 C459.18,770.97 458.89,771.17 459.19,772.11 C459.44,772.87 460.85,774.09 462.32,774.80 C463.80,775.52 465.00,776.85 465.00,777.75 C465.00,779.79 469.88,785.00 471.79,785.00 C472.58,785.00 472.98,785.61 472.69,786.35 C472.05,788.04 480.52,797.13 484.27,798.77 C485.79,799.43 487.43,800.99 487.91,802.24 C488.38,803.48 489.69,805.33 490.82,806.34 C491.94,807.36 492.64,808.76 492.37,809.47 C491.78,811.02 502.27,823.63 504.83,824.45 C507.69,825.35 512.44,830.85 512.47,833.29 C512.49,834.64 513.13,835.51 514.11,835.52 C516.40,835.54 519.10,838.01 518.33,839.36 C517.97,839.99 518.03,840.19 518.45,839.81 C519.13,839.19 524.44,844.47 523.88,845.21 C523.35,845.92 526.18,850.00 527.21,850.00 C529.12,850.00 531.90,853.10 531.33,854.59 C531.03,855.37 531.24,856.00 531.80,856.00 C532.35,856.00 534.40,858.36 536.35,861.25 C540.53,867.46 551.44,880.10 553.69,881.37 C554.89,882.04 555.08,881.92 554.47,880.88 C554.02,880.12 554.63,880.36 555.83,881.40 C557.02,882.45 558.00,884.16 558.00,885.20 C558.00,887.82 562.50,892.13 564.46,891.38 C565.86,890.84 566.02,882.02 565.98,805.64 ZM 867.57 148.79 C862.37,153.32 855.53,159.23 846.53,167.00 C839.84,172.77 809.34,199.21 778.75,225.75 C763.81,238.71 750.13,250.51 739.99,259.20 C740.00,259.18 740.00,259.17 740.00,259.15 C740.00,258.00 743.60,254.25 748.71,250.08 C751.02,248.19 752.65,246.24 752.34,245.75 C751.80,244.87 753.44,243.06 757.51,240.02 C759.48,238.55 759.48,238.56 757.50,240.94 C756.25,242.44 756.06,243.04 757.00,242.52 C759.70,241.04 761.96,238.75 761.49,237.98 C760.89,237.02 772.11,227.40 773.36,227.80 C774.76,228.25 780.02,222.85 779.31,221.69 C778.95,221.11 779.20,221.00 779.89,221.43 C781.10,222.18 789.99,214.85 791.02,212.25 C791.31,211.53 793.62,209.94 796.15,208.72 C798.68,207.50 800.78,206.05 800.82,205.50 C801.03,202.70 801.98,200.87 802.93,201.46 C803.52,201.82 804.00,201.61 804.00,200.99 C804.00,200.32 804.81,200.12 806.01,200.50 C807.66,201.03 808.13,200.59 808.64,198.07 C808.97,196.38 809.61,195.00 810.04,195.00 C810.48,195.00 812.54,193.20 814.62,191.00 C816.71,188.80 818.99,187.00 819.71,187.00 C820.42,187.00 821.00,186.52 821.00,185.94 C821.00,185.36 821.41,185.14 821.92,185.45 C822.42,185.76 824.17,184.89 825.81,183.51 C827.45,182.13 829.11,181.00 829.51,181.00 C830.65,181.00 837.53,174.69 837.27,173.87 C837.15,173.46 838.95,171.65 841.27,169.84 C848.47,164.24 858.01,155.68 857.55,155.22 C856.98,154.64 861.74,149.53 863.01,149.38 C863.55,149.31 865.01,149.14 866.25,149.01 C866.94,148.93 867.38,148.87 867.57,148.79 ZM 321.86 284.95 L 272.00 285.00 L 272.00 350.44 C272.00,297.75 271.78,288.00 270.61,288.00 C268.36,288.00 267.77,284.90 269.73,283.40 C272.11,281.60 274.07,281.65 273.36,283.50 C272.99,284.48 279.65,284.83 321.86,284.95 ZM 739.50 259.62 C732.95,265.24 727.93,269.51 725.09,271.88 C725.24,271.61 725.32,271.36 725.27,271.16 C725.15,270.59 726.86,268.70 729.07,266.95 C731.28,265.19 732.85,263.52 732.55,263.22 C731.42,262.09 734.38,260.00 737.12,260.00 C738.11,260.00 738.98,259.85 739.50,259.62 ZM 873.43 143.66 C871.79,145.11 869.88,146.77 867.68,148.69 C867.68,148.59 867.36,148.47 866.75,148.31 C865.15,147.89 865.14,147.72 866.61,146.25 C867.49,145.37 869.32,144.53 870.68,144.38 C871.72,144.27 872.67,144.01 873.43,143.66 ZM 880.70 137.06 C879.45,138.26 877.73,139.84 875.35,141.96 C875.45,141.56 875.29,141.18 874.81,140.88 C873.76,140.23 873.76,139.84 874.80,138.80 C875.50,138.10 876.62,137.47 877.29,137.41 L 880.19 137.15 C880.38,137.14 880.55,137.10 880.70,137.06 ZM 707.48 130.40 C713.30,130.41 718.92,130.42 724.36,130.42 C717.23,130.56 713.33,130.72 713.44,130.90 C714.45,132.54 710.60,133.17 709.42,131.55 C709.06,131.07 708.32,130.67 707.48,130.40 ZM 880.78 131.54 C883.67,131.80 883.73,132.11 883.79,132.51 C883.90,133.31 883.86,133.90 881.45,136.32 C881.55,135.94 881.52,135.43 881.36,134.75 C881.11,133.66 880.87,132.32 880.78,131.54 ZM 772.42 229.36 C772.94,227.99 772.80,227.92 771.52,228.98 C769.79,230.42 769.61,231.00 770.89,231.00 C771.38,231.00 772.07,230.26 772.42,229.36 ZM 459.00 770.65 C459.00,770.47 457.99,769.45 456.75,768.40 L 454.50 766.50 L 456.40 768.75 C458.20,770.86 459.00,771.46 459.00,770.65 Z" fill="rgb(51,210,191)"/>
<path d="M 0.00 512.00 L 0.00 0.00 L 512.00 0.00 L 1024.00 0.00 L 1024.00 512.00 L 1024.00 1024.00 L 512.00 1024.00 L 0.00 1024.00 L 0.00 512.00 ZM 567.92 893.60 C569.47,891.72 569.35,724.13 567.79,722.25 C567.07,721.38 567.09,721.00 567.88,721.00 C568.70,721.00 569.00,670.56 569.00,530.00 L 569.00 339.00 L 491.00 339.00 L 413.00 339.00 L 413.00 530.00 L 413.00 721.00 L 416.04 721.00 C418.74,721.00 418.96,721.21 418.02,722.96 C417.13,724.62 417.92,726.02 423.23,732.21 C436.98,748.25 488.70,807.91 494.13,814.00 C497.31,817.58 506.09,827.70 513.64,836.50 C521.18,845.30 532.35,858.12 538.45,865.00 C544.56,871.88 550.74,879.08 552.18,881.00 C556.32,886.50 564.51,895.00 565.69,895.00 C566.27,895.00 567.28,894.37 567.92,893.60 ZM 270.96 561.07 C272.37,558.44 272.40,421.61 271.00,418.99 C270.33,417.74 270.33,416.92 271.00,416.50 C271.65,416.10 272.00,393.11 272.00,350.44 L 272.00 285.00 L 490.75 284.75 L 709.50 284.50 L 709.83 281.66 C710.10,279.22 710.49,278.91 712.53,279.42 C714.29,279.86 715.81,279.23 718.34,277.01 C720.22,275.35 722.07,274.00 722.45,274.00 C722.82,274.00 748.16,252.29 778.75,225.75 C809.34,199.21 839.84,172.77 846.53,167.00 C883.39,135.17 884.08,134.53 883.79,132.51 C883.50,130.50 883.01,130.50 511.75,130.25 L 140.00 130.00 L 140.00 272.98 L 140.00 415.96 L 142.53 416.60 C144.46,417.08 144.92,417.68 144.45,419.15 C144.01,420.56 145.35,422.74 149.46,427.29 C152.55,430.70 178.96,461.17 208.16,495.00 C237.36,528.83 262.63,557.96 264.32,559.75 C267.85,563.48 269.50,563.81 270.96,561.07 Z" fill="rgb(254,254,254)"/>
</g>
</svg>